<?xml version="1.0" standalone="no"?>
<!DOCTYPE svg PUBLIC "-//W3C//DTD SVG 20010904//EN"
 "http://www.w3.org/TR/2001/REC-SVG-20010904/DTD/svg10.dtd">
<svg version="1.0" xmlns="http://www.w3.org/2000/svg"
 width="700.000000pt" height="700.000000pt" viewBox="0 0 700.000000 700.000000"
 preserveAspectRatio="xMidYMid meet">
<metadata>
Created by potrace 1.14, written by Peter Selinger 2001-2017
</metadata>
<g transform="translate(0.000000,700.000000) scale(0.100000,-0.100000)"
fill="#000000" stroke="none">
<path d="M580 4777 l-195 -63 -3 -57 -3 -57 101 0 100 0 0 -808 c0 -771 -1
-810 -18 -825 -10 -10 -30 -17 -44 -17 -14 0 -46 -3 -72 -6 l-46 -7 0 -63 0
-64 343 2 342 3 0 60 0 60 -62 10 c-112 18 -104 -21 -101 499 l3 451 75 17
c187 45 300 32 363 -42 59 -69 60 -79 64 -494 4 -375 4 -378 -17 -401 -15 -16
-38 -24 -81 -29 l-59 -7 0 -64 0 -65 340 0 340 0 0 64 0 63 -46 7 c-26 3 -59
6 -74 6 -60 0 -60 -2 -60 431 0 411 -6 491 -41 584 -32 86 -75 135 -153 175
-67 34 -72 35 -185 34 -132 0 -182 -15 -365 -105 -54 -27 -101 -49 -102 -49
-2 0 -4 185 -4 410 l0 410 -72 0 c-61 -1 -105 -11 -268 -63z"/>
<path d="M5393 4777 l-203 -62 0 -57 0 -58 100 0 100 0 0 -800 c0 -704 -2
-804 -15 -824 -13 -20 -27 -25 -90 -31 l-75 -7 0 -64 0 -64 345 0 345 0 0 64
0 63 -66 6 c-107 10 -104 2 -104 264 l0 223 68 0 67 0 158 -256 c152 -247 157
-257 157 -309 l0 -55 265 0 265 0 0 63 0 64 -82 9 -83 9 -212 345 c-117 190
-212 350 -210 357 4 20 290 335 311 343 12 4 54 11 94 15 l72 7 0 64 0 64
-280 0 -280 0 0 -64 0 -63 59 -7 c33 -4 64 -12 70 -19 7 -10 -39 -71 -182
-239 -176 -208 -195 -227 -224 -227 l-33 -1 0 655 0 655 -67 -1 c-53 -1 -114
-15 -270 -62z"/>
<path d="M2686 4179 c-173 -18 -292 -74 -413 -194 -145 -144 -200 -298 -190
-540 6 -163 34 -259 108 -370 131 -195 355 -296 624 -282 206 12 349 71 475
197 83 83 125 154 162 270 20 64 23 96 23 220 -1 169 -14 231 -77 360 -119
245 -388 373 -712 339z m199 -168 c87 -40 160 -155 192 -302 21 -100 22 -348
0 -444 -27 -122 -55 -184 -111 -241 -41 -42 -63 -56 -110 -69 -180 -52 -319
62 -373 306 -22 102 -22 357 0 457 46 207 146 312 296 312 43 0 80 -7 106 -19z"/>
<path d="M4272 4179 c-171 -16 -298 -75 -418 -194 -129 -128 -181 -255 -191
-466 -17 -354 167 -621 487 -706 90 -24 320 -24 410 0 191 51 353 178 430 338
57 120 73 205 67 364 -6 147 -22 217 -74 325 -47 97 -167 220 -263 267 -123
62 -283 88 -448 72z m206 -175 c135 -67 211 -287 198 -574 -13 -301 -113 -469
-290 -487 -141 -14 -243 70 -303 252 -26 76 -27 90 -27 285 -1 166 2 217 17
269 36 130 102 225 182 262 61 28 158 26 223 -7z"/>
</g>
</svg>
